<?xml version="1.0" standalone="no"?><!DOCTYPE svg PUBLIC "-//W3C//DTD SVG 1.1//EN" "http://www.w3.org/Graphics/SVG/1.1/DTD/svg11.dtd"><svg class="icon" width="200px" height="200.00px" viewBox="0 0 1024 1024" version="1.1" xmlns="http://www.w3.org/2000/svg"><path d="M869.369767 925.716224c-15.186267 0-29.461276-5.913962-40.198762-16.651447L599.935367 679.828115l20.009791-20.009791 229.236662 229.236662c10.76513 10.778441 29.571856 10.778441 40.364631 0 5.388708-5.389732 8.360024-12.561025 8.360023-20.188971 0-7.627946-2.971315-14.799238-8.360023-20.188971L660.308765 619.453693l20.009791-20.009791 229.236662 229.223351c22.16507 22.16507 22.16507 58.23143 0 80.3965-10.724175 10.737485-24.99816 16.652471-40.185451 16.652471zM421.772154 747.165981c-179.696994 0-325.884269-146.187275-325.884269-325.884269S242.07516 95.397443 421.772154 95.397443s325.884269 146.187275 325.884268 325.884269S601.469147 747.165981 421.772154 747.165981z m0-623.468347c-164.081719 0-297.583055 133.501336-297.583055 297.583055S257.689411 718.864767 421.772154 718.864767s297.584079-133.501336 297.584078-297.583055S585.853872 123.697634 421.772154 123.697634z" fill="#707070" /><path d="M209.808437 453.106116c-7.600301 0-13.873646-6.038876-14.12245-13.694466-2.197258-67.033772 22.565409-129.922857 69.728639-177.099397 47.190875-47.17654 109.913066-72.008831 177.127041-69.728638 7.807126 0.248804 13.928936 6.785288 13.666822 14.606748-0.248804 7.807126-6.812933 14.537124-14.606748 13.666821-59.060777-1.603404-114.597341 19.899211-156.177325 61.46486-41.566673 41.579983-63.385669 97.034636-61.464859 156.177324 0.262115 7.807126-5.858672 14.34361-13.680132 14.592414-0.153583 0.014334-0.305118 0.014334-0.470988 0.014334z" fill="#707070" /></svg>